<svg xmlns="http://www.w3.org/2000/svg" version="1.1" xmlns:xlink="http://www.w3.org/1999/xlink" width="2000" height="98" viewBox="0 0 2000 98"><svg xml:space="preserve" width="2000" height="98" data-version="2" data-id="lg_4Rg27HpICAFudGwb9X" viewBox="0 0 655 98" x="0" y="0"><rect width="100%" height="100%" fill="transparent"></rect><g transform="translate(374.3 49)"><filter id="a" width="141.46%" height="148.34%" x="-20.73%" y="-24.17%"><feGaussianBlur in="SourceAlpha"></feGaussianBlur><feOffset dx="4" dy="4" result="oBlur"></feOffset><feFlood flood-color="#000" flood-opacity="1"></feFlood><feComposite in2="oBlur" operator="in"></feComposite><feMerge><feMergeNode></feMergeNode><feMergeNode in="SourceGraphic"></feMergeNode></feMerge></filter><g filter="url(#a)"><g transform="translate(-234.84 -8.24)"><linearGradient id="b" x1="0" x2="10" y1="0" y2="0" gradientUnits="objectBoundingBox"><stop offset="0%" stop-color="#f00b51"></stop><stop offset="100%" stop-color="#730062"></stop></linearGradient><path fill="url(#b)" d="M235.21 405.92h-17.49q-1.95 6.13-4.2 10.63-2.25 4.5-4.99 7.47-2.73 2.96-6 4.4-3.27 1.44-7.31 1.44-2.22 0-4.29-.39-2.06-.4-3.64-1.09-1.58-.7-2.53-1.65-.95-.95-.95-2.06 0-.84.26-1.7.25-.86.71-1.58.47-.71 1.14-1.15.67-.45 1.51-.45.74 0 1.3 1.02.55 1.03 1.41 2.25.86 1.23 2.21 2.25 1.34 1.02 3.71 1.02 2.41 0 4.59-1.15 2.18-1.16 4.2-3.65 2.01-2.48 3.87-6.33 1.86-3.85 3.62-9.28h-10.95v-4.08h12.15q1.54-5.19 3-10.48t2.76-10.16q1.3-4.87 2.32-9.11 1.02-4.25 1.71-7.4-.93-2.6-2.53-3.48-1.6-.88-4.29-.88-2.5 0-5.17.76-2.67.77-4.85 2.18-2.18 1.42-3.59 3.48-1.42 2.07-1.42 4.62 0 1.48.4 2.36.39.88.93 1.32.53.45 1.04.56.51.12.79.12 1.11 0 1.88-.4.76-.39 1.34-.83.58-.44 1.14-.84.56-.39 1.25-.39.51 0 1.14.25.62.26 1.16.82.53.55.9 1.46.37.9.37 2.2 0 1.86-.72 3.2-.72 1.35-1.85 2.25-1.14.9-2.6 1.35-1.46.44-2.9.44-2.22 0-4.01-.82-1.79-.81-3.04-2.2-1.25-1.39-1.9-3.25-.65-1.85-.65-3.89 0-3.06 1.02-5.64 1.02-2.57 2.83-4.68t4.27-3.71q2.46-1.6 5.31-2.69 2.85-1.09 5.96-1.65 3.11-.56 6.26-.56 4.45 0 7.54.72 3.08.72 5.17 2.13 2.09 1.42 3.36 3.58 1.28 2.15 2.12 4.98l9.97 34.28h10.06v4.08h-8.95l3.62 12.16q.19.69.37 1.3.19.6.44 1.04.26.44.65.72.4.28 1 .28 1.3 0 2.41-.44t1.95-.91l.79 1.72q-.84.6-2.11 1.37-1.28.76-2.93 1.46-1.64.69-3.64 1.16-1.99.46-4.26.46-3.16 0-5.08-.79-1.93-.78-3.02-1.94t-1.58-2.46q-.48-1.3-.76-2.28Zm-9-31.35q-1.9 7.74-3.69 14.56t-3.55 12.71h15.12Z" transform="translate(-223.06 -393)"></path></g><rect width="78.49" height="73.71" x="-39.24" y="-36.85" fill="none" rx="0" ry="0" transform="translate(-234.34 -7.75)"></rect><g transform="translate(-182.74 .55)"><linearGradient id="c" x1="-2.1" x2="19.97" y1="0" y2="0" gradientUnits="objectBoundingBox"><stop offset="0%" stop-color="#f00b51"></stop><stop offset="100%" stop-color="#730062"></stop></linearGradient><path fill="url(#c)" d="M278.81 381.06q-1.07 0-2.02.28t-1.7.9q-.74.63-1.16 1.58-.41.95-.41 2.25 0 1.81 1.32 3.6 1.32 1.78 3.29 3.71 1.97 1.92 4.27 3.99 2.3 2.06 4.27 4.36 1.97 2.29 3.29 4.89 1.32 2.6 1.32 5.57 0 3.34-1.13 5.93-1.14 2.6-3.25 4.41-2.11 1.81-5.1 2.76-2.99.95-6.66.95-3.2 0-5.8-.9-2.59-.91-4.61-2.23-2.02-1.32-3.46-2.81-1.44-1.48-2.23-2.69l1.63-1.16q.6.7 1.53 1.51t2.06 1.51q1.14.7 2.44 1.14 1.3.44 2.64.44 3.34 0 5.48-1.6 2.13-1.6 2.13-4.76 0-1.76-1.16-3.64-1.16-1.88-2.92-3.87-1.76-2-3.81-4.13-2.04-2.13-3.8-4.41-1.76-2.27-2.92-4.68-1.16-2.42-1.16-5.01 0-2.93 1.18-5.11t3.16-3.61q1.97-1.44 4.5-2.16 2.52-.72 5.21-.72 3.11 0 5.66.56 2.55.55 4.39 1.69 1.83 1.14 2.83 2.85.99 1.72.99 3.99 0 1.77-1.16 3.06-1.16 1.3-3.24 1.3-2 0-3.04-.86-1.05-.85-1.05-2.34 0-.97.49-1.53t1.09-.9q.6-.35 1.09-.61.49-.25.49-.67 0-1.3-1.39-2.06-1.39-.77-3.57-.77" transform="translate(-275.16 -401.8)"></path></g><rect width="32.24" height="48.89" x="-16.12" y="-24.45" fill="none" rx="0" ry="0" transform="translate(-182.24 1.04)"></rect><g transform="translate(-129.88 .55)"><linearGradient id="d" x1="-1.36" x2="7.77" y1="0" y2="0" gradientUnits="objectBoundingBox"><stop offset="0%" stop-color="#f00b51"></stop><stop offset="100%" stop-color="#730062"></stop></linearGradient><path fill="url(#d)" d="M335.35 421.42q0 .6-.19 1.44-.19.83-.9 1.57-.72.75-2.16 1.28-1.44.53-3.9.53t-3.87-.58q-1.42-.58-2.13-1.37-.72-.78-.91-1.62-.18-.83-.18-1.34v-32.8q0-.65-.19-1.32t-.56-1.23q-.37-.56-.92-.91-.56-.34-1.3-.34-1.26 0-2.46.72-1.21.71-2.25 1.64-1.05.93-1.81 1.86-.77.93-1.09 1.39v31.08q0 .6-.19 1.44-.18.83-.9 1.57-.72.75-2.13 1.28-1.42.53-3.88.53t-3.87-.58q-1.42-.58-2.16-1.37-.74-.78-.93-1.62-.18-.83-.18-1.34v-35.82q0-1.34-.63-2.34-.62-1-2.11-1-.79 0-1.34.28-.56.28-1.21.79l-.97-1.16q1.06-.88 2.38-1.74 1.33-.86 2.86-1.51 1.53-.64 3.29-1.06 1.76-.42 3.71-.42 3.02 0 4.69 1 1.67 1 2.46 2.39.78 1.39.95 2.9.16 1.5.16 2.52 2.18-2.45 4.68-4.4 1.02-.84 2.25-1.63 1.23-.78 2.53-1.41 1.3-.63 2.69-1t2.79-.37q2.69 0 4.59.97 1.9.98 3.06 2.35 1.16 1.37 1.69 2.87.54 1.51.54 2.62 2.22-2.45 4.68-4.4 1.02-.84 2.23-1.63 1.2-.78 2.53-1.41 1.32-.63 2.69-1 1.36-.37 2.76-.37 2.69 0 4.59 1t3.06 2.62q1.16 1.62 1.69 3.66.54 2.04.54 4.09v28.71q0 .42.04.9.05.49.23.93.19.44.58.72.4.28 1.05.28.88 0 1.58-.63.69-.62 1.29-1.27l1.12.97q-.65.97-1.72 2.16-1.07 1.18-2.53 2.25-1.46 1.06-3.38 1.78-1.93.72-4.34.72-2.04 0-3.55-.53-1.51-.53-2.55-1.44-1.04-.9-1.55-2.13t-.51-2.62v-30.99q0-.65-.19-1.32t-.53-1.23q-.35-.56-.91-.91-.55-.34-1.3-.34-1.25 0-2.48.72-1.23.71-2.27 1.64-1.05.93-1.79 1.86t-1.06 1.39Z" transform="translate(-328.02 -401.8)"></path></g><rect width="75.98" height="48.89" x="-37.99" y="-24.45" fill="none" rx="0" ry="0" transform="translate(-129.38 1.04)"></rect><g transform="translate(-71.25 .55)"><linearGradient id="e" x1="-3.84" x2="11.65" y1="0" y2="0" gradientUnits="objectBoundingBox"><stop offset="0%" stop-color="#f00b51"></stop><stop offset="100%" stop-color="#730062"></stop></linearGradient><path fill="url(#e)" d="M365.17 401.75q0-6.08 1.76-10.65 1.76-4.56 4.71-7.63 2.94-3.06 6.84-4.59 3.9-1.53 8.16-1.53 4.27 0 8.17 1.42 3.89 1.41 6.84 4.33 2.95 2.92 4.71 7.4 1.76 4.48 1.76 10.6 0 6.08-1.76 10.76-1.76 4.69-4.71 7.89-2.95 3.2-6.84 4.85-3.9 1.64-8.17 1.64-4.26 0-8.16-1.55-3.9-1.56-6.84-4.62-2.95-3.06-4.71-7.65-1.76-4.59-1.76-10.67m28.53-.46q0-3.71-.26-7.17t-1-6.15q-.74-2.69-2.13-4.29t-3.67-1.6q-2.27 0-3.66 1.7-1.39 1.69-2.13 4.45-.75 2.76-.98 6.28-.23 3.53-.23 7.24 0 3.71.23 7.26t.98 6.33q.74 2.78 2.13 4.48 1.39 1.69 3.66 1.69 2.28 0 3.67-1.76 1.39-1.76 2.13-4.64t1-6.49q.26-3.62.26-7.33" transform="translate(-386.64 -401.8)"></path></g><rect width="42.95" height="48.89" x="-21.48" y="-24.45" fill="none" rx="0" ry="0" transform="translate(-70.75 1.04)"></rect><g transform="translate(-24.73 .55)"><linearGradient id="f" x1="-4.44" x2="9.68" y1="0" y2="0" gradientUnits="objectBoundingBox"><stop offset="0%" stop-color="#f00b51"></stop><stop offset="100%" stop-color="#730062"></stop></linearGradient><path fill="url(#f)" d="M453.16 417.43q0 .42.04.9.05.49.24.93.18.44.55.72.37.28 1.07.28.88 0 1.58-.63.69-.62 1.3-1.27l1.11.97q-.7.97-1.74 2.16-1.04 1.18-2.53 2.25-1.48 1.06-3.39 1.78-1.9.72-4.31.72-2.04 0-3.55-.53-1.51-.53-2.55-1.44-1.04-.9-1.55-2.13t-.51-2.62v-2.09q-2.32 2.5-4.87 4.41-1.12.83-2.37 1.62-1.25.79-2.6 1.41-1.34.63-2.78 1-1.44.37-2.88.37-2.78 0-4.75-1-1.97-.99-3.18-2.62-1.2-1.62-1.76-3.66t-.56-4.08v-28.72q0-.41-.04-.9-.05-.49-.24-.93-.18-.44-.55-.72-.37-.28-1.07-.28-.83 0-1.55.63-.72.63-1.28 1.28l-1.16-.98q.7-.97 1.74-2.15 1.04-1.19 2.53-2.25 1.48-1.07 3.41-1.79 1.92-.72 4.29-.72 2.04 0 3.57.53 1.53.54 2.55 1.44 1.02.91 1.53 2.14t.51 2.62v30.98q0 .65.21 1.33.21.67.6 1.22.4.56 1 .91.61.35 1.44.35 1.35 0 2.69-.7 1.35-.69 2.46-1.65 1.11-.95 1.92-1.87.82-.93 1.19-1.4v-27.09q0-.41-.05-.9-.05-.49-.23-.93-.19-.44-.56-.72-.37-.28-1.06-.28-.84 0-1.56.63-.72.63-1.27 1.28l-1.16-.98q.69-.97 1.74-2.15 1.04-1.19 2.52-2.25 1.49-1.07 3.41-1.79 1.93-.72 4.29-.72 2.04 0 3.58.53 1.53.54 2.55 1.44 1.02.91 1.53 2.14t.51 2.62Z" transform="translate(-433.17 -401.8)"></path></g><rect width="51.77" height="48.89" x="-25.89" y="-24.45" fill="none" rx="0" ry="0" transform="translate(-24.23 1.04)"></rect><g transform="translate(21.18 4.03)"><linearGradient id="g" x1="-5.62" x2="9.01" y1="0" y2="0" gradientUnits="objectBoundingBox"><stop offset="0%" stop-color="#f00b51"></stop><stop offset="100%" stop-color="#730062"></stop></linearGradient><path fill="url(#g)" d="M488.45 402.4q0-5.85-.53-9.35t-1.42-5.33q-.88-1.83-1.94-2.41-1.07-.58-2.18-.58-1.35 0-2.39.72-1.05.71-1.81 1.64-.77.93-1.3 1.86t-.91 1.39v30.99q0 .6-.18 1.46-.19.85-.91 1.62-.71.77-2.13 1.3-1.41.53-3.87.53t-3.88-.58q-1.41-.58-2.15-1.37-.74-.78-.93-1.62-.19-.83-.19-1.34v-35.82q0-1.34-.62-2.34-.63-1-2.11-1-.79 0-1.35.28-.55.28-1.2.79l-.98-1.16q1.07-.88 2.39-1.74t2.85-1.51q1.53-.64 3.3-1.06 1.76-.42 3.71-.42 3.01 0 4.68 1t2.46 2.39q.79 1.39.95 2.9.16 1.5.16 2.52 1.72-2.45 3.9-4.4.88-.84 1.97-1.63 1.09-.78 2.32-1.41 1.23-.63 2.6-1t2.81-.37q3.15 0 5.59 1.21 2.43 1.2 4.1 4.03 1.67 2.83 2.55 7.49.88 4.67.88 11.58 0 6.72-1.2 11.69-1.21 4.96-3.16 8.44-1.95 3.48-4.4 5.68-2.46 2.2-4.97 3.46-2.5 1.25-4.8 1.74-2.29.48-3.96.53l-.51-1.9q1.39-.33 2.57-1.02 1.18-.7 2.16-2.04.97-1.35 1.71-3.41.75-2.07 1.28-5.17.53-3.11.79-7.36.25-4.24.25-9.9" transform="translate(-479.08 -405.27)"></path></g><rect width="47.22" height="55.85" x="-23.61" y="-27.93" fill="none" rx="0" ry="0" transform="translate(21.68 4.53)"></rect><g transform="translate(67.6 .5)"><linearGradient id="h" x1="-7.81" x2="9.63" y1="0" y2="0" gradientUnits="objectBoundingBox"><stop offset="0%" stop-color="#f00b51"></stop><stop offset="100%" stop-color="#730062"></stop></linearGradient><path fill="url(#h)" d="M520.08 404.21q0 1.48.44 3.22.44 1.74 1.28 3.5.83 1.77 2.06 3.37t2.83 2.85q1.6 1.25 3.55 2 1.95.74 4.27.74 1.62 0 3.01-.37 1.4-.37 2.6-1.02 1.21-.65 2.32-1.51 1.11-.86 2.23-1.83l1.16 1.11q-1.07 1.44-2.74 3.15-1.67 1.72-4.03 3.23-2.37 1.5-5.52 2.5-3.16 1-7.19 1-4.04 0-7.87-1.46-3.82-1.46-6.79-4.39-2.97-2.92-4.76-7.28-1.78-4.36-1.78-10.2 0-4.22 1.06-7.75 1.07-3.53 2.9-6.35 1.84-2.83 4.27-4.97 2.44-2.13 5.13-3.55 2.69-1.41 5.49-2.13 2.81-.72 5.41-.72 3.43 0 5.98.74 2.55.74 4.25 2 1.69 1.25 2.52 2.9.84 1.64.84 3.45 0 2.18-1.25 3.92-1.26 1.74-3.34 3.04Zm9.33-9.42q.6-.37.99-.72.4-.34.63-.83.23-.49.35-1.21.11-.72.11-1.78 0-1.16-.25-2.58-.26-1.41-.86-2.67-.6-1.25-1.53-2.08-.93-.84-2.23-.84-1.67 0-2.85 1-1.18 1-1.95 2.57-.76 1.58-1.2 3.6-.44 2.02-.68 4.06-.23 2.04-.27 3.92-.05 1.88-.05 3.17Z" transform="translate(-525.49 -401.75)"></path></g><rect width="40.68" height="48.8" x="-20.34" y="-24.4" fill="none" rx="0" ry="0" transform="translate(68.1 1)"></rect><g transform="translate(100.82 .13)"><linearGradient id="i" x1="-12.06" x2="12.17" y1="0" y2="0" gradientUnits="objectBoundingBox"><stop offset="0%" stop-color="#f00b51"></stop><stop offset="100%" stop-color="#730062"></stop></linearGradient><path fill="url(#i)" d="M546.84 395.77h23.75v11.22h-23.75Z" transform="translate(-558.72 -401.38)"></path></g><rect width="23.75" height="11.22" x="-11.88" y="-5.61" fill="none" rx="0" ry="0" transform="translate(101.32 .63)"></rect><g transform="translate(135.51 -11.47)"><linearGradient id="j" x1="-8.36" x2="6.8" y1="0" y2="0" gradientUnits="objectBoundingBox"><stop offset="0%" stop-color="#f00b51"></stop><stop offset="100%" stop-color="#730062"></stop></linearGradient><path fill="url(#j)" d="M603.11 402.4q0-4.04-.42-7.58-.42-3.55-1.35-6.22-.93-2.67-2.36-4.22-1.44-1.56-3.48-1.56-1.58 0-2.67.77-1.09.76-1.79 1.74-.69.97-1.02 1.92-.32.96-.32 1.28v13.87q0 10.11 1.69 14.7 1.7 4.6 4.99 4.6 3.48 0 5.1-4.69 1.63-4.68 1.63-14.61m-27.65-40.91q0-1.35-.63-2.35-.62-.99-2.11-.99-.79 0-1.37.25-.58.26-1.23.77l-.92-1.12q1.06-.88 2.39-1.74 1.32-.85 2.85-1.5t3.29-1.07q1.76-.42 3.71-.42 2.69 0 4.34.81 1.65.82 2.5 2 .86 1.18 1.14 2.55.28 1.37.28 2.53v20.69q.56-.51 1.44-1.28.88-.76 2.22-1.51 1.35-.74 3.23-1.25t4.43-.51q2.97 0 5.94 1.37 2.96 1.37 5.33 4.29t3.85 7.51q1.48 4.6 1.48 11.04 0 5.06-1.36 9.56-1.37 4.5-4.06 7.86-2.69 3.37-6.73 5.31-4.03 1.95-9.37 1.95-5.8 0-9.76-1.88-3.97-1.88-6.38-5.05-2.41-3.18-3.46-7.4-1.04-4.22-1.04-8.91Z" transform="translate(-593.41 -389.78)"></path></g><rect width="48.42" height="72.92" x="-24.21" y="-36.46" fill="none" rx="0" ry="0" transform="translate(136.01 -10.97)"></rect><g transform="translate(168.59 -11.47)"><linearGradient id="k" x1="-19.46" x2="13.13" y1="0" y2="0" gradientUnits="objectBoundingBox"><stop offset="0%" stop-color="#f00b51"></stop><stop offset="100%" stop-color="#730062"></stop></linearGradient><path fill="url(#k)" d="M636.73 421.42q0 .6-.21 1.44-.21.83-.97 1.57-.77.75-2.23 1.28t-3.92.53q-2.46 0-3.85-.58-1.39-.58-2.06-1.37-.68-.78-.84-1.62-.16-.83-.16-1.34v-59.84q0-1.35-.63-2.35-.62-.99-2.11-.99-.79 0-1.37.25-.58.26-1.22.77l-.93-1.12q1.06-.88 2.36-1.74 1.3-.85 2.86-1.5 1.55-.65 3.31-1.07 1.77-.42 3.71-.42 3.02 0 4.69.81 1.67.82 2.46 2 .79 1.18.95 2.5.16 1.33.16 2.35Z" transform="translate(-626.48 -389.78)"></path></g><rect width="20.5" height="72.92" x="-10.25" y="-36.46" fill="none" rx="0" ry="0" transform="translate(169.09 -10.97)"></rect><g transform="translate(204.85 .55)"><linearGradient id="l" x1="-10.05" x2="5.45" y1="0" y2="0" gradientUnits="objectBoundingBox"><stop offset="0%" stop-color="#f00b51"></stop><stop offset="100%" stop-color="#730062"></stop></linearGradient><path fill="url(#l)" d="M641.27 401.75q0-6.08 1.76-10.65 1.77-4.56 4.71-7.63 2.95-3.06 6.84-4.59 3.9-1.53 8.17-1.53t8.16 1.42q3.9 1.41 6.84 4.33 2.95 2.92 4.71 7.4 1.77 4.48 1.77 10.6 0 6.08-1.77 10.76-1.76 4.69-4.71 7.89-2.94 3.2-6.84 4.85-3.89 1.64-8.16 1.64t-8.17-1.55q-3.89-1.56-6.84-4.62-2.94-3.06-4.71-7.65-1.76-4.59-1.76-10.67m28.53-.46q0-3.71-.26-7.17-.25-3.46-.99-6.15-.75-2.69-2.14-4.29-1.39-1.6-3.66-1.6-2.27 0-3.67 1.7-1.39 1.69-2.13 4.45-.74 2.76-.97 6.28-.24 3.53-.24 7.24 0 3.71.24 7.26.23 3.55.97 6.33.74 2.78 2.13 4.48 1.4 1.69 3.67 1.69t3.66-1.76q1.39-1.76 2.14-4.64.74-2.88.99-6.49.26-3.62.26-7.33" transform="translate(-662.75 -401.8)"></path></g><rect width="42.96" height="48.89" x="-21.48" y="-24.45" fill="none" rx="0" ry="0" transform="translate(205.35 1.04)"></rect><g transform="translate(250.47 7.37)"><linearGradient id="m" x1="-11.11" x2="4.48" y1="0" y2="0" gradientUnits="objectBoundingBox"><stop offset="0%" stop-color="#f00b51"></stop><stop offset="100%" stop-color="#730062"></stop></linearGradient><path fill="url(#m)" d="M686.72 396.32q0-4.73 1.65-8.28 1.65-3.55 4.43-5.93 2.78-2.39 6.45-3.58 3.66-1.18 7.7-1.18t7.65 1.07q3.62 1.06 6.4 3.29.89-1.34 1.44-2.83.56-1.48.56-2.97 0-1.95-1.04-3.11-1.05-1.15-2.67-1.15v-1.35q1.02-.32 1.81-.58.79-.26 1.44-.39.64-.14 1.29-.21.65-.07 1.44-.07 2.18 0 3.34 1.34 1.16 1.35 1.16 3.71 0 1.4-.65 2.76-.65 1.37-1.62 2.62-.98 1.26-2.16 2.37-1.18 1.11-2.25 1.95 1.95 2.22 3.02 5.19 1.06 2.97 1.06 6.78 0 4.77-1.64 8.44-1.65 3.66-4.43 6.17-2.79 2.5-6.45 3.78-3.66 1.27-7.7 1.27-2.37 0-4.64-.41-2.27-.42-4.27-1.21-.74.56-1.27 1.39-.54.84-.54 1.86 0 1.71 1.49 2.55 1.48.83 3.94 1.2 2.46.38 5.57.47 3.11.09 6.38.3t6.37.79q3.11.58 5.57 1.9 2.46 1.32 3.94 3.6 1.49 2.27 1.49 5.89 0 2.64-1.12 4.75-1.11 2.11-2.99 3.71-1.88 1.6-4.36 2.74-2.48 1.14-5.24 1.85-2.76.72-5.61 1.05-2.86.32-5.45.32-4.73 0-8.51-.48-3.79-.49-6.43-1.51-2.64-1.02-4.08-2.65-1.44-1.62-1.44-3.89 0-1.63.74-2.99.75-1.37 1.97-2.51 1.23-1.14 2.76-2.04 1.54-.9 3.11-1.69-2.32-.98-3.87-2.95-1.56-1.97-1.56-5.22 0-1.71.61-3.17.6-1.47 1.55-2.69.95-1.23 2.09-2.23t2.2-1.69q-1.9-1.12-3.5-2.72t-2.74-3.62q-1.13-2.01-1.76-4.47-.63-2.46-.63-5.34m26.49-.37q0-2.69-.28-5.24-.28-2.55-.97-4.55-.7-1.99-1.9-3.22-1.21-1.23-3.11-1.23t-3.11 1.28q-1.2 1.27-1.9 3.34-.7 2.06-.97 4.68-.28 2.62-.28 5.31 0 2.74.28 5.38.27 2.65.97 4.74.7 2.08 1.9 3.36 1.21 1.27 3.11 1.27t3.11-1.34q1.2-1.35 1.9-3.5.69-2.16.97-4.85.28-2.69.28-5.43m7.05 41.52q0-1.49-1.16-2.44t-3.04-1.53q-1.87-.58-4.26-.88-2.39-.3-4.85-.46-2.46-.17-4.78-.31-2.32-.13-4.03-.37-.98.7-1.88 1.51-.91.81-1.58 1.72-.67.9-1.09 1.9-.42 1-.42 2.02 0 1.76 1.02 2.94 1.02 1.19 2.76 1.88 1.74.7 4.04.98 2.29.27 4.85.27 3.38 0 6.07-.58 2.69-.58 4.55-1.57 1.85-1 2.83-2.3.97-1.3.97-2.78" transform="translate(-708.37 -408.62)"></path></g><rect width="45.23" height="79.13" x="-22.61" y="-39.56" fill="none" rx="0" ry="0" transform="translate(250.97 7.87)"></rect></g></g><g transform="translate(45.12 47.04)scale(1.4262)"><linearGradient id="n" x1="0" x2="1" y1="0" y2="0" gradientUnits="objectBoundingBox"><stop offset="0%" stop-color="#f00b51"></stop><stop offset="100%" stop-color="#730062"></stop></linearGradient><path fill="url(#n)" d="m52 34.07-16.1 16.1c-.1.1-.219.179-.35.23l-9.19 3.53a1.007 1.007 0 0 1-1.07-.22.988.988 0 0 1-.22-1.07l3.53-9.19c.051-.131.13-.25.23-.35L52 19.93V14h-6a3.009 3.009 0 0 1-3-3V4H13a3.009 3.009 0 0 0-3 3v3h23a3.009 3.009 0 0 1 3 3v16a3.009 3.009 0 0 1-3 3H23v5a.987.987 0 0 1-.62.92.838.838 0 0 1-.38.08 1.01 1.01 0 0 1-.71-.29L15.59 32H10v25a3.009 3.009 0 0 0 3 3h36a3.009 3.009 0 0 0 3-3Z" transform="translate(-31 -32)"></path></g><g transform="translate(28 34.62)scale(1.4262)"><linearGradient id="o" x1="0" x2="1" y1="0" y2="0" gradientUnits="objectBoundingBox"><stop offset="0%" stop-color="#f00b51"></stop><stop offset="100%" stop-color="#730062"></stop></linearGradient><path fill="url(#o)" d="m16.71 30.29 4.29 4.3V31a1 1 0 0 1 1-1h11a1 1 0 0 0 1-1V13a1 1 0 0 0-1-1H5a1 1 0 0 0-1 1v16a1 1 0 0 0 1 1h11c.265.002.52.106.71.29M12 16h18v2H12Zm-4 0h2v2H8Zm0 4h22v2H8Zm0 4h22v2H8Z" transform="translate(-19 -23.3)"></path></g><g transform="translate(69.19 13.96)scale(1.4262)"><linearGradient id="p" x1="0" x2="1" y1="0" y2="0" gradientUnits="objectBoundingBox"><stop offset="0%" stop-color="#f00b51"></stop><stop offset="100%" stop-color="#730062"></stop></linearGradient><path fill="url(#p)" d="M50.75 12 45 5.61V11a1 1 0 0 0 1 1Z" transform="translate(-47.88 -8.8)"></path></g><g transform="rotate(-45 98.62 -50.26)scale(1.4262)"><linearGradient id="r" x1="0" x2="1" y1="0" y2="0" gradientUnits="objectBoundingBox"><stop offset="0%" stop-color="#f00b51"></stop><stop offset="100%" stop-color="#730062"></stop></linearGradient><path fill="url(#r)" d="M30.24 36.09h29v2h-29z" transform="translate(-44.74 -37.09)"></path></g><g transform="rotate(-45 81.98 -80.66)scale(1.4262)"><linearGradient id="t" x1="0" x2="1" y1="0" y2="0" gradientUnits="objectBoundingBox"><stop offset="0%" stop-color="#f00b51"></stop><stop offset="100%" stop-color="#730062"></stop></linearGradient><path fill="url(#t)" d="M54.4 19.6h4v6h-4z" transform="translate(-56.4 -22.6)"></path></g><g transform="rotate(-45 91.72 -47.4)scale(1.4262)"><linearGradient id="v" x1="0" x2="1" y1="0" y2="0" gradientUnits="objectBoundingBox"><stop offset="0%" stop-color="#f00b51"></stop><stop offset="100%" stop-color="#730062"></stop></linearGradient><path fill="url(#v)" d="M27.41 33.26h29v2h-29z" transform="translate(-41.91 -34.26)"></path></g><g transform="translate(41.59 73.39)scale(1.4262)"><linearGradient id="x" x1="0" x2="1" y1="0" y2="0" gradientUnits="objectBoundingBox"><stop offset="0%" stop-color="#f00b51"></stop><stop offset="100%" stop-color="#730062"></stop></linearGradient><path fill="url(#x)" d="m27.74 51.26 1.57-.61-.96-.96z" transform="translate(-28.52 -50.48)"></path></g><g transform="translate(45.5 69.48)scale(1.4262)"><linearGradient id="z" x1="0" x2="1" y1="0" y2="0" gradientUnits="objectBoundingBox"><stop offset="0%" stop-color="#f00b51"></stop><stop offset="100%" stop-color="#730062"></stop></linearGradient><path fill="url(#z)" d="m33.4 49.08-3.48-3.48-.79 2.05 2.22 2.22z" transform="translate(-31.27 -47.73)"></path></g></svg></svg>